<?xml version="1.0" standalone="no"?>
<!DOCTYPE svg PUBLIC "-//W3C//DTD SVG 20010904//EN"
 "http://www.w3.org/TR/2001/REC-SVG-20010904/DTD/svg10.dtd">
<svg version="1.0" xmlns="http://www.w3.org/2000/svg"
 width="618.000000pt" height="618.000000pt" viewBox="0 0 618.000000 618.000000"
 preserveAspectRatio="xMidYMid meet">
<metadata>
Created by potrace 1.14, written by Peter Selinger 2001-2017
</metadata>
<g transform="translate(0.000000,618.000000) scale(0.100000,-0.100000)"
fill="#000000" stroke="none">
<path d="M1810 4703 c0 -5 -15 -8 -34 -7 -18 1 -53 -2 -77 -7 -58 -12 -61 -13
-85 -27 -12 -6 -24 -8 -28 -5 -3 3 -6 1 -6 -5 0 -7 -5 -12 -11 -12 -15 0 -139
-131 -139 -146 0 -7 -8 -18 -17 -23 -10 -6 -15 -11 -11 -11 3 0 -3 -26 -14
-57 -11 -31 -20 -65 -21 -75 -1 -10 -4 -18 -8 -18 -4 0 -6 -8 -5 -17 5 -33
-15 -69 -72 -129 -31 -33 -71 -80 -88 -104 -40 -58 -96 -176 -98 -206 0 -13
-3 -24 -6 -24 -5 0 -10 -23 -13 -62 -1 -10 -5 -18 -9 -18 -4 0 -8 -11 -8 -24
0 -14 -5 -37 -11 -53 -6 -15 -13 -44 -14 -63 -1 -19 -3 -35 -4 -35 -3 0 -10
-33 -17 -74 -2 -19 -10 -42 -17 -50 -10 -12 -9 -13 3 -6 12 7 13 6 4 -6 -7 -8
-14 -32 -17 -54 -3 -22 -8 -53 -11 -70 -3 -16 -8 -41 -10 -55 -3 -14 -5 -25
-7 -25 -2 0 -9 -44 -11 -72 -1 -13 -5 -23 -9 -23 -4 0 -6 -8 -4 -17 1 -10 0
-22 -4 -28 -3 -5 -6 -14 -7 -20 -6 -36 -14 -77 -24 -120 -6 -27 -12 -62 -14
-76 -2 -15 -6 -31 -9 -36 -3 -5 -7 -26 -9 -46 -1 -21 -5 -37 -8 -37 -3 0 -7
-17 -8 -37 -2 -21 -7 -53 -13 -71 -6 -19 -12 -48 -13 -66 -2 -18 -6 -37 -10
-44 -4 -6 -9 -26 -12 -44 -8 -56 -11 -72 -19 -118 -5 -25 -8 -52 -6 -62 1 -9
-3 -19 -8 -22 -6 -4 -8 -13 -4 -21 3 -8 0 -15 -7 -15 -10 0 -10 -3 0 -15 7 -8
8 -15 3 -15 -5 0 -10 -17 -11 -37 -1 -21 -6 -51 -10 -68 -9 -34 -8 -245 2
-290 12 -51 61 -148 93 -182 17 -18 28 -35 25 -38 -3 -3 -1 -5 5 -5 5 0 24
-14 42 -30 17 -17 31 -28 31 -24 0 3 7 -1 15 -8 26 -23 40 -33 55 -36 8 -2 17
-7 20 -10 3 -4 14 -9 25 -10 11 -2 25 -7 30 -12 6 -4 24 -11 40 -15 17 -5 36
-10 43 -12 6 -1 20 -5 30 -7 9 -3 17 -5 17 -6 0 -1 11 -3 25 -4 14 0 31 -5 38
-9 6 -5 12 -4 12 1 0 6 9 8 20 5 11 -3 18 -8 16 -12 -2 -3 52 -7 120 -8 93 -1
122 2 117 10 -4 7 1 6 10 -2 9 -7 17 -9 17 -3 0 5 10 10 23 10 35 2 62 7 67
12 13 13 63 30 72 24 6 -4 8 -2 4 4 -3 6 3 13 14 17 11 3 20 11 20 16 0 5 7 9
15 9 8 0 19 9 25 20 6 11 15 18 20 15 5 -3 11 4 15 15 4 11 11 18 16 15 5 -4
9 -2 9 3 0 4 14 23 31 40 17 18 27 32 23 32 -5 0 -4 4 2 8 15 11 76 102 68
102 -4 0 1 6 12 14 10 8 16 17 12 21 -4 4 2 17 13 28 10 12 32 47 47 79 15 32
30 58 34 58 5 0 8 9 8 20 0 11 5 20 11 20 5 0 8 4 5 8 -3 5 4 19 15 31 11 12
17 26 14 31 -3 6 -1 10 5 10 6 0 9 4 6 9 -4 5 -3 11 1 13 5 1 22 30 38 63 17
33 32 62 35 65 3 3 19 31 35 63 15 31 32 57 37 57 5 0 7 4 4 8 -3 5 11 34 30
66 18 31 34 61 34 67 0 5 4 9 10 9 5 0 6 7 3 17 -4 9 -2 14 3 10 6 -3 16 10
23 29 7 20 17 32 23 28 7 -5 8 -2 3 5 -4 8 6 30 25 57 17 24 29 44 26 44 -3 0
8 15 25 32 16 18 29 36 29 41 0 13 27 37 34 30 3 -4 6 0 6 7 0 7 3 10 7 7 3
-4 15 0 25 10 10 9 18 12 18 7 0 -5 5 -2 10 6 7 11 10 12 10 2 0 -10 4 -10 16
2 8 9 27 16 42 17 68 3 88 5 100 12 6 5 12 4 12 -1 0 -5 7 -9 15 -9 8 0 15 3
15 7 0 3 27 6 60 5 33 0 60 2 60 5 0 3 9 6 20 6 11 0 20 -4 20 -9 0 -5 7 -4
15 3 12 10 15 10 15 -1 0 -9 3 -10 8 -3 4 7 81 10 222 10 118 -1 244 3 280 7
91 11 331 14 336 5 3 -5 10 -5 16 -2 7 4 8 2 4 -4 -4 -7 -2 -12 3 -12 9 0 62
-73 67 -90 3 -12 16 -47 25 -62 5 -10 9 -28 9 -41 0 -13 3 -27 7 -31 4 -3 8
-16 10 -28 2 -12 8 -27 14 -35 6 -7 9 -20 5 -28 -3 -8 -2 -15 3 -15 5 0 12
-12 17 -27 4 -16 8 -30 9 -33 1 -3 9 -23 19 -45 9 -22 23 -57 29 -77 7 -21 15
-38 19 -38 5 0 8 -9 8 -20 0 -11 4 -20 10 -20 5 0 7 -7 4 -15 -4 -8 -1 -15 5
-15 6 0 10 -3 9 -7 -1 -8 48 -114 67 -143 5 -8 10 -17 11 -20 11 -37 18 -50
25 -50 5 0 9 -5 9 -11 0 -6 14 -30 30 -55 17 -24 27 -44 23 -44 -4 0 0 -5 10
-11 9 -5 17 -17 17 -25 0 -8 4 -12 10 -9 6 3 10 -1 10 -9 0 -9 5 -16 10 -16 6
0 10 -5 10 -11 0 -22 145 -149 170 -149 5 0 10 -4 10 -9 0 -9 47 -23 85 -25
11 -1 25 -4 30 -7 6 -3 36 -5 68 -5 31 1 57 -3 57 -8 0 -4 9 -6 20 -3 11 3 20
0 20 -6 0 -8 4 -7 9 2 5 7 11 9 14 5 3 -5 36 -9 74 -8 39 0 71 -4 75 -10 6 -8
8 -8 8 0 0 6 20 10 50 10 28 -1 50 1 50 4 0 3 19 6 43 7 60 4 67 5 67 15 0 5
4 7 9 3 5 -3 17 2 25 11 9 8 16 13 16 9 0 -3 15 2 33 12 17 9 36 16 42 14 5
-1 7 0 4 4 -4 3 18 31 47 61 30 30 52 59 49 64 -4 6 -1 10 5 10 6 0 9 4 5 9
-3 6 3 14 12 20 10 5 17 12 16 15 -2 3 -3 7 -2 9 1 3 9 40 14 62 14 68 18 114
19 230 0 76 5 133 11 137 7 5 7 8 0 8 -7 0 -11 42 -12 108 -1 111 -8 231 -19
317 -3 28 -6 75 -6 105 0 30 -5 60 -10 67 -5 6 -5 14 0 17 7 4 9 51 2 51 -1 0
-3 50 -6 110 -2 61 -6 128 -10 150 -6 45 -13 142 -18 255 -2 41 -7 83 -11 92
-4 9 -4 21 -1 27 4 5 2 12 -2 15 -5 3 -8 18 -6 33 1 15 -3 31 -9 35 -9 6 -9 8
1 8 9 0 10 5 3 19 -6 10 -11 35 -13 55 -1 21 -6 40 -10 42 -4 3 -8 12 -8 21 0
19 -58 136 -72 144 -5 3 -9 9 -9 13 3 19 0 29 -6 23 -3 -4 -17 9 -30 28 -13
19 -28 35 -33 35 -6 0 -10 6 -10 13 0 8 -11 20 -25 27 -14 7 -25 16 -25 20 0
10 -122 95 -132 92 -5 -1 -7 1 -4 6 2 4 -6 16 -19 26 -13 10 -21 24 -18 32 3
8 -1 14 -8 14 -7 0 -10 3 -6 6 3 4 -2 28 -12 55 -10 26 -16 50 -13 53 3 4 0 6
-6 6 -7 0 -12 6 -12 14 0 29 -111 126 -162 143 -10 3 -18 9 -18 14 0 5 -4 9
-9 9 -5 0 -22 5 -38 12 -15 6 -34 10 -40 9 -7 -1 -13 3 -13 9 0 5 -3 9 -7 9
-5 -1 -10 0 -13 1 -12 4 -175 18 -287 23 -13 1 -23 4 -23 9 0 4 -11 4 -23 -1
-13 -5 -30 -5 -37 -1 -8 5 -17 7 -20 5 -7 -4 -91 -17 -126 -19 -11 0 -27 -6
-35 -12 -8 -5 -33 -19 -56 -30 -24 -10 -43 -22 -43 -26 0 -4 -12 -19 -27 -33
-15 -14 -23 -25 -18 -25 5 0 0 -7 -13 -15 -28 -20 -76 -101 -67 -115 3 -5 2
-10 -3 -10 -12 0 -36 -104 -37 -157 0 -29 -4 -43 -13 -43 -7 0 -10 -4 -7 -10
3 -6 -4 -10 -17 -11 -13 0 -147 -2 -298 -4 -308 -5 -449 -11 -458 -19 -3 -3
-11 -1 -19 5 -7 6 -13 8 -13 3 0 -5 -57 -10 -128 -12 -204 -4 -277 -8 -292
-17 -9 -6 -11 -4 -5 4 5 9 1 12 -11 11 -11 -1 -24 -2 -30 -1 -19 2 -134 116
-134 133 0 9 -4 20 -10 23 -5 3 -10 19 -10 35 0 16 -4 31 -9 35 -6 3 -8 15 -6
26 2 11 -2 22 -10 26 -8 3 -15 12 -15 19 0 17 -64 84 -80 84 -5 0 -10 4 -10 8
0 12 -141 90 -170 94 -14 2 -29 6 -35 10 -17 11 -170 30 -255 32 -25 1 -51 5
-57 9 -7 5 -13 4 -13 0z"/>
</g>
</svg>
